<svg xmlns="http://www.w3.org/2000/svg" viewBox="0 0 512 512">
  <defs>
    <linearGradient id="bgGradient" x1="0%" y1="0%" x2="100%" y2="100%">
      <stop offset="0%" style="stop-color:#2563eb;stop-opacity:1" />
      <stop offset="100%" style="stop-color:#1d4ed8;stop-opacity:1" />
    </linearGradient>
  </defs>

  <!-- 背景 -->
  <rect width="512" height="512" fill="url(#bgGradient)" rx="80"/>

  <!-- カレンダー本体 -->
  <rect x="106" y="122" width="300" height="268" fill="white" rx="24"/>

  <!-- カレンダーヘッダー -->
  <rect x="106" y="122" width="300" height="80" fill="#1e40af" rx="24"/>
  <rect x="106" y="176" width="300" height="26" fill="#1e40af"/>

  <!-- リング（2つの円） -->
  <circle cx="192" cy="92" r="20" fill="#1e40af"/>
  <circle cx="320" cy="92" r="20" fill="#1e40af"/>
  <circle cx="192" cy="92" r="12" fill="url(#bgGradient)"/>
  <circle cx="320" cy="92" r="12" fill="url(#bgGradient)"/>

  <!-- グリッド（ドット） -->
  <circle cx="146" cy="252" r="12" fill="#2563eb"/>
  <circle cx="196" cy="252" r="12" fill="#2563eb"/>
  <circle cx="246" cy="252" r="12" fill="#2563eb"/>
  <circle cx="296" cy="252" r="12" fill="#2563eb"/>
  <circle cx="346" cy="252" r="12" fill="#2563eb"/>

  <circle cx="146" cy="302" r="12" fill="#2563eb"/>
  <circle cx="196" cy="302" r="12" fill="#2563eb"/>
  <circle cx="246" cy="302" r="12" fill="#2563eb"/>
  <circle cx="296" cy="302" r="12" fill="#2563eb"/>
  <circle cx="346" cy="302" r="12" fill="#2563eb"/>

  <circle cx="146" cy="352" r="12" fill="#2563eb"/>
  <circle cx="196" cy="352" r="12" fill="#2563eb"/>
  <circle cx="296" cy="352" r="12" fill="#2563eb"/>
  <circle cx="346" cy="352" r="12" fill="#2563eb"/>

  <!-- 日付番号 "15" -->
  <text x="256" y="370" font-family="Arial, sans-serif" font-size="120" font-weight="bold" fill="#ef4444" text-anchor="middle">15</text>
</svg>
